HIERARCHY
ROOT Hips
{
	OFFSET 0.00000 0.00000 0.00000
	CHANNELS 6 Xposition Yposition Zposition Zrotation Yrotation Xrotation 
	JOINT LHipJoint
	{
		OFFSET 0 0 0
		CHANNELS 3 Zrotation Yrotation Xrotation
		JOINT LeftUpLeg
		{
			OFFSET 1.75344 -1.53157 0.77399
			CHANNELS 3 Zrotation Yrotation Xrotation
			JOINT LeftLeg
			{
				OFFSET 2.25415 -6.19323 0.00000
				CHANNELS 3 Zrotation Yrotation Xrotation
				JOINT LeftFoot
				{
					OFFSET 2.30342 -6.32861 0.00000
					CHANNELS 3 Zrotation Yrotation Xrotation
					JOINT LeftToeBase
					{
						OFFSET 0.10958 -0.30108 1.49206
						CHANNELS 3 Zrotation Yrotation Xrotation
						End Site
						{
							OFFSET 0.00000 -0.00000 0.77783
						}
					}
				}
			}
		}
	}
	JOINT RHipJoint
	{
		OFFSET 0 0 0
		CHANNELS 3 Zrotation Yrotation Xrotation
		JOINT RightUpLeg
		{
			OFFSET -1.81912 -1.53156 0.77399
			CHANNELS 3 Zrotation Yrotation Xrotation
			JOINT RightLeg
			{
				OFFSET -2.22882 -6.12365 0.00000
				CHANNELS 3 Zrotation Yrotation Xrotation
				JOINT RightFoot
				{
					OFFSET -2.21943 -6.09785 0.00000
					CHANNELS 3 Zrotation Yrotation Xrotation
					JOINT RightToeBase
					{
						OFFSET -0.18931 -0.52012 1.59379
						CHANNELS 3 Zrotation Yrotation Xrotation
						End Site
						{
							OFFSET -0.00000 -0.00000 0.84686
						}
					}
				}
			}
		}
	}
	JOINT LowerBack
	{
		OFFSET 0 0 0
		CHANNELS 3 Zrotation Yrotation Xrotation
		JOINT Spine
		{
			OFFSET -0.00200 1.66634 -0.14248
			CHANNELS 3 Zrotation Yrotation Xrotation
			JOINT Spine1
			{
				OFFSET -0.00875 1.64542 0.09514
				CHANNELS 3 Zrotation Yrotation Xrotation
				JOINT Neck
				{
					OFFSET 0 0 0
					CHANNELS 3 Zrotation Yrotation Xrotation
					JOINT Neck1
					{
						OFFSET 0.02257 1.59605 0.00839
						CHANNELS 3 Zrotation Yrotation Xrotation
						JOINT Head
						{
							OFFSET -0.10214 1.57530 -0.23335
							CHANNELS 3 Zrotation Yrotation Xrotation
							End Site
							{
								OFFSET -0.03588 1.60717 -0.08062
							}
						}
					}
				}
				JOINT LeftShoulder
				{
					OFFSET 0 0 0
					CHANNELS 3 Zrotation Yrotation Xrotation
					JOINT LeftArm
					{
						OFFSET 2.54983 1.10186 0.40078
						CHANNELS 3 Zrotation Yrotation Xrotation
						JOINT LeftForeArm
						{
							OFFSET 4.28840 -0.00000 0.00000
							CHANNELS 3 Zrotation Yrotation Xrotation
							JOINT LeftHand
							{
								OFFSET 3.06552 -0.00000 -0.00000
								CHANNELS 3 Zrotation Yrotation Xrotation
								JOINT LeftFingerBase
								{
									OFFSET 0 0 0
									CHANNELS 3 Zrotation Yrotation Xrotation
									JOINT LeftHandIndex1
									{
										OFFSET 0.75304 -0.00000 0.00000
										CHANNELS 3 Zrotation Yrotation Xrotation
										End Site
										{
											OFFSET 0.60712 -0.00000 0.00000
										}
									}
								}
								JOINT LThumb
								{
									OFFSET 0 0 0
									CHANNELS 3 Zrotation Yrotation Xrotation
									End Site
									{
										OFFSET 0.61639 -0.00000 0.61639
									}
								}
							}
						}
					}
				}
				JOINT RightShoulder
				{
					OFFSET 0 0 0
					CHANNELS 3 Zrotation Yrotation Xrotation
					JOINT RightArm
					{
						OFFSET -2.60909 1.35448 0.21802
						CHANNELS 3 Zrotation Yrotation Xrotation
						JOINT RightForeArm
						{
							OFFSET -4.52172 -0.00000 -0.00000
							CHANNELS 3 Zrotation Yrotation Xrotation
							JOINT RightHand
							{
								OFFSET -2.89140 -0.00000 0.00000
								CHANNELS 3 Zrotation Yrotation Xrotation
								JOINT RightFingerBase
								{
									OFFSET 0 0 0
									CHANNELS 3 Zrotation Yrotation Xrotation
									JOINT RightHandIndex1
									{
										OFFSET -0.68054 -0.00000 0.00000
										CHANNELS 3 Zrotation Yrotation Xrotation
										End Site
										{
											OFFSET -0.54867 -0.00000 0.00000
										}
									}
								}
								JOINT RThumb
								{
									OFFSET 0 0 0
									CHANNELS 3 Zrotation Yrotation Xrotation
									End Site
									{
										OFFSET -0.55705 -0.00000 0.55705
									}
								}
							}
						}
					}
				}
			}
		}
	}
}
MOTION
Frames: 10
Frame Time: .0083333
8.4678 15.1013 -34.8490 -174.9340 -61.1899 183.1790 0.0000 0.0000 0.0000 -23.3456 -8.1502 -21.5173 4.7957 13.1500 39.9325 1.9758 11.1959 -32.5422 0.8368 -5.8354 -16.3077 0.0000 0.0000 0.0000 24.1956 -3.4758 -21.9088 -4.9086 -13.2801 40.4263 -0.4857 -20.4353 -32.1605 -0.0247 -1.0153 2.7910 -5.1182 -0.0495 14.1698 0.5978 -0.9207 -1.9258 3.7572 -0.1317 -9.9946 1.2140 1.2039 -11.4287 -1.6595 1.6034 9.2705 -0.5938 0.7208 4.6710 0.0000 0.0000 0.0000 -80.2286 7.6649 8.8224 23.7401 -34.8883 -7.5574 -0.0000 -0.0000 6.1476 11.0917 -32.0579 -5.9405 -7.1250 0.0000 -0.0000 -11.6458 -1.9766 12.2940 0.0000 0.0000 0.0000 73.2760 -19.7221 19.5538 -24.3524 35.5347 -7.9105 0.0000 0.0000 9.0634 -2.5499 -55.5700 2.1037 7.1250 -0.0000 -0.0000 79.3122 -72.8376 -61.1898
8.4732 15.0946 -34.8641 -175.3880 -62.7143 183.7210 0.0000 0.0000 0.0000 -23.5509 -8.9479 -21.6471 4.8165 13.1742 40.0240 2.0053 10.3051 -32.0962 0.5875 -4.9074 -13.6445 0.0000 0.0000 0.0000 23.8204 -4.0262 -22.9465 -5.2698 -13.6814 41.9758 -0.3577 -20.4729 -31.3874 -0.0253 -1.0270 2.8231 -5.4581 -0.0786 14.1445 0.5956 -1.0188 -1.9316 3.9694 -0.1600 -9.9730 0.8762 1.1509 -11.6312 -1.2815 1.5428 9.0842 -0.4258 0.7041 4.6402 -0.0000 -0.0000 0.0000 -81.7546 6.5725 6.3831 22.5772 -33.6232 -6.9027 -0.0000 -0.0000 10.1130 8.8566 -33.7737 -4.9508 -7.1250 0.0000 -0.0000 -13.0099 -3.3422 14.1062 -0.0000 -0.0000 0.0000 73.3209 -19.5185 19.7203 -24.4977 35.6862 -7.9951 0.0000 0.0000 8.8008 -1.8021 -55.1447 1.4790 7.1250 -0.0000 -0.0000 78.2284 -72.4992 -59.7326
8.4738 15.0864 -34.8891 -175.2320 -63.9148 183.3850 0.0000 0.0000 0.0000 -23.3998 -9.2683 -21.4962 4.8576 13.2216 40.2039 2.0163 9.4239 -31.5721 0.4558 -4.3310 -12.0098 0.0000 0.0000 0.0000 23.7619 -4.3491 -23.3805 -5.6132 -14.0428 43.4090 -0.1315 -20.8129 -30.3149 -0.0038 -0.3995 1.0976 -5.7018 0.0723 14.3091 0.6538 -0.8634 -1.8151 4.1390 -0.0736 -9.9538 1.0732 1.1343 -11.7001 -1.3180 1.4911 8.8339 -0.4729 0.6846 4.5753 0.0000 -0.0000 0.0000 -82.5271 6.4794 6.9925 22.4238 -33.4527 -6.8180 -0.0000 -0.0000 11.3229 6.5941 -34.0320 -3.7016 -7.1250 0.0000 -0.0000 -14.2595 -3.3050 15.5357 0.0000 -0.0000 0.0000 73.3515 -19.3676 20.1955 -24.5284 35.7181 -8.0130 0.0000 0.0000 8.3676 -1.7483 -54.7091 1.4271 7.1250 -0.0000 -0.0000 76.8965 -72.3930 -58.3200
8.4744 15.0787 -34.9120 -175.0000 -65.1596 182.9390 0.0000 0.0000 0.0000 -23.2441 -9.5220 -21.3749 4.9199 13.2930 40.4754 1.9817 8.8667 -30.9984 0.5474 -4.7399 -13.1681 0.0000 0.0000 0.0000 23.6894 -4.6755 -23.6983 -5.9337 -14.3638 44.7152 -0.0517 -20.6917 -29.5960 -0.0145 -0.7766 2.1343 -5.8092 0.1988 14.5572 0.7014 -0.7238 -1.7193 4.2248 0.0000 -10.0063 1.3191 1.1689 -11.7552 -1.6606 1.5327 8.5331 -0.6158 0.6929 4.4967 0.0000 0.0000 0.0000 -82.7755 6.7587 7.5153 22.3235 -33.3407 -6.7628 -0.0000 -0.0000 12.2808 3.7028 -34.8097 -2.1158 -7.1250 0.0000 -0.0000 -15.8537 -3.7288 17.5174 0.0000 0.0000 0.0000 73.3558 -19.2712 20.7542 -24.5688 35.7600 -8.0366 0.0000 0.0000 7.8675 -1.6767 -54.3090 1.3619 7.1250 -0.0000 -0.0000 75.6980 -72.2788 -57.0369
8.4755 15.0741 -34.9334 -174.4360 -66.3764 182.1580 0.0000 0.0000 0.0000 -22.9616 -9.5228 -21.3559 4.9970 13.3804 40.8098 1.9585 8.2505 -30.4635 0.7304 -5.4602 -15.2261 0.0000 0.0000 0.0000 23.7463 -4.9723 -23.9154 -6.2183 -14.6366 45.8515 -0.1646 -20.0530 -29.5411 -0.1213 -2.2451 6.1835 -5.6350 0.3512 14.8965 0.7250 -0.5074 -1.6408 4.1071 0.0966 -10.1410 1.3037 1.1167 -11.6890 -1.6361 1.4594 8.1393 -0.6119 0.6598 4.3631 -0.0000 0.0000 0.0000 -82.4965 7.3569 8.5362 22.4332 -33.4632 -6.8232 -0.0000 -0.0000 12.4904 0.5640 -35.4122 -0.3268 -7.1250 0.0000 -0.0000 -17.5327 -4.0070 19.6302 -0.0000 0.0000 0.0000 73.5472 -19.2163 20.8106 -24.6418 35.8356 -8.0792 0.0000 0.0000 7.7398 -1.2472 -53.8479 1.0071 7.1250 -0.0000 -0.0000 74.5007 -72.0140 -55.5855
8.4754 15.0711 -34.9569 -173.1540 -67.5168 180.7170 0.0000 0.0000 0.0000 -22.3885 -9.5766 -21.3432 5.0847 13.4785 41.1872 1.9526 7.7118 -30.0941 0.9196 -6.1098 -17.1032 0.0000 0.0000 0.0000 24.0921 -5.2213 -24.0715 -6.4713 -14.8701 46.8453 0.0027 -20.2471 -28.5910 -0.0920 -1.9563 5.3849 -5.2205 0.5723 15.1273 0.8429 -0.1364 -1.5168 3.9154 0.2518 -10.1768 0.9853 0.9451 -11.5226 -1.3042 1.2402 7.2615 -0.5285 0.5686 4.5210 -0.0000 -0.0000 0.0000 -82.5696 7.1877 8.9695 22.1623 -33.1600 -6.6744 -0.0000 -0.0000 13.2591 -2.3904 -35.2793 1.3811 -7.1250 0.0000 -0.0000 -19.0692 -3.6567 21.4382 -0.0000 -0.0000 0.0000 73.7280 -19.1234 20.5003 -24.6400 35.8337 -8.0782 0.0000 0.0000 8.1814 -0.4540 -53.2037 0.3636 7.1250 -0.0000 -0.0000 73.0055 -71.5586 -53.6373
8.4753 15.0652 -34.9780 -171.4390 -68.6012 178.9400 0.0000 0.0000 0.0000 -21.6917 -9.9696 -21.3210 5.1750 13.5782 41.5733 1.9676 7.1963 -29.8809 0.9681 -6.2644 -17.5534 0.0000 0.0000 0.0000 24.5461 -5.3838 -24.2463 -6.6903 -15.0654 47.6929 0.1694 -20.4100 -27.5507 -0.0497 -1.4383 3.9558 -4.8393 0.7632 15.1760 1.0990 0.2129 -1.3644 3.8952 0.3985 -10.0710 0.7120 0.8473 -11.4062 -1.2311 1.1412 6.8527 -0.4613 0.5169 4.3438 0.0000 -0.0000 0.0000 -83.1214 6.7296 8.1932 21.7100 -32.6477 -6.4287 -0.0000 -0.0000 14.8229 -5.2932 -35.1267 3.0515 -7.1250 0.0000 -0.0000 -20.5633 -3.3492 23.2436 0.0000 -0.0000 0.0000 73.5447 -18.8891 20.5517 -24.5521 35.7427 -8.0268 0.0000 0.0000 8.7564 0.2467 -52.4247 -0.1955 7.1250 -0.0000 -0.0000 71.1919 -71.0741 -51.3778
8.4720 15.0581 -34.9963 -169.8230 -69.5724 177.2840 0.0000 0.0000 0.0000 -21.1206 -10.3801 -21.3280 5.2626 13.6736 41.9453 1.9796 6.7766 -29.7128 1.0253 -6.4411 -18.0699 0.0000 0.0000 0.0000 24.8335 -5.3438 -24.3438 -6.8729 -15.2240 48.3921 0.2212 -20.2114 -26.8427 -0.0476 -1.4075 3.8707 -4.5630 0.9508 15.1695 1.3665 0.5403 -1.2341 3.9520 0.5415 -9.9565 0.5654 0.8524 -11.3949 -1.3106 1.1745 6.5707 -0.4590 0.5255 4.2393 -0.0000 0.0000 0.0000 -83.6639 6.7022 7.3918 21.4990 -32.4062 -6.3153 -0.0000 -0.0000 15.6960 -7.9385 -35.2017 4.5958 -7.1250 0.0000 -0.0000 -21.9030 -3.3215 24.9923 -0.0000 0.0000 0.0000 73.1304 -18.5756 20.9833 -24.4053 35.5899 -7.9412 0.0000 0.0000 9.1169 0.7277 -51.7218 -0.5713 7.1250 -0.0000 -0.0000 69.5700 -70.6679 -49.4128
8.4641 15.0514 -35.0149 -168.4360 -70.4245 175.7110 0.0000 0.0000 0.0000 -20.7365 -10.6523 -21.1692 5.3492 13.7665 42.3101 1.9532 6.8105 -29.5631 1.2459 -7.0773 -19.9446 0.0000 0.0000 0.0000 24.9144 -5.2030 -24.1844 -7.0193 -15.3482 48.9474 0.2903 -20.0748 -26.0610 -0.0066 -0.5253 1.4436 -4.2631 1.2101 15.2618 1.5209 0.9499 -1.0823 3.8521 0.7193 -9.8812 0.3506 0.7930 -11.3630 -1.1981 1.1137 6.2708 -0.3866 0.4964 4.1212 0.0000 0.0000 0.0000 -83.7735 6.9903 7.4143 21.5707 -32.4885 -6.3537 -0.0000 -0.0000 15.2640 -10.3989 -34.5992 5.9490 -7.1250 0.0000 -0.0000 -23.1558 -2.7110 26.4439 0.0000 0.0000 0.0000 72.8250 -18.2696 21.1883 -24.2636 35.4417 -7.8589 0.0000 0.0000 9.7130 2.0210 -51.2125 -1.5755 7.1250 -0.0000 -0.0000 69.0491 -70.0368 -48.1782
8.4599 15.0428 -35.0305 -167.0870 -71.2864 174.1240 0.0000 0.0000 0.0000 -20.4302 -11.0521 -20.9443 5.4338 13.8563 42.6649 1.9180 7.0291 -29.4642 1.3496 -7.3544 -20.7697 0.0000 0.0000 0.0000 24.9210 -4.9187 -23.9268 -7.1360 -15.4454 49.3870 0.0278 -18.9060 -26.5264 -0.0843 -1.8725 5.1534 -3.8353 1.4113 15.4350 1.5026 1.2852 -0.9074 3.5071 0.8490 -9.8089 0.3358 0.7395 -11.4128 -0.9612 1.0201 6.0077 -0.3107 0.4625 4.0338 0.0000 0.0000 0.0000 -83.5015 7.3365 7.2189 21.8165 -32.7691 -6.4863 -0.0000 -0.0000 14.6052 -12.7733 -33.3468 7.1036 -7.1250 0.0000 -0.0000 -24.4021 -1.5439 27.6665 0.0000 0.0000 0.0000 72.7353 -17.7945 21.2356 -24.0981 35.2679 -7.7631 0.0000 0.0000 10.7999 4.5849 -50.5133 -3.5416 7.1250 -0.0000 -0.0000 69.0073 -68.9015 -46.7372
